<svg width="40" height="40" viewBox="0 0 40 40" fill="none" xmlns="http://www.w3.org/2000/svg">
<path d="M36.47 28.8037H36.2357C36.1233 28.4649 35.9863 28.1348 35.8252 27.8149L35.9925 27.6471C36.2254 27.4139 36.3538 27.1039 36.3538 26.7731C36.3538 26.4429 36.2253 26.1328 35.9928 25.9003L35.3205 25.2279V18.1509C35.3205 17.2849 34.6149 16.5805 33.7479 16.5805H32.5492L33.4885 6.10532C33.512 5.84076 33.5474 5.44126 33.1622 5.04151L30.918 2.71395C30.6891 2.47226 30.535 2.41945 30.217 2.3917L29.3415 2.31313C29.3409 2.31307 29.3405 2.3127 29.3399 2.3127C29.3394 2.31263 29.3389 2.31295 29.3383 2.31288L10.6177 0.632633C10.152 0.587445 9.69422 0.732133 9.33254 1.03426C8.9706 1.33638 8.74841 1.76057 8.70722 2.22782L7.45297 16.1942H3.76735C3.7646 16.1942 3.76185 16.1942 3.7591 16.1942C3.33797 16.1942 2.95954 16.3401 2.69254 16.6056C2.43954 16.8576 2.30585 17.1915 2.30585 17.5718L2.29272 33.8184C2.29272 35.0494 2.89241 36.505 5.66585 36.5937C5.73647 36.6214 5.81216 36.6394 5.89254 36.6394H23.2115L24.2327 37.6606C24.6975 38.1256 25.5132 38.1251 25.9786 37.6606L26.1455 37.4933C26.4639 37.6538 26.794 37.7912 27.134 37.9035V38.1403C27.134 38.8209 27.6888 39.3751 28.3708 39.3751H30.411C31.0921 39.3751 31.646 38.8209 31.646 38.1403V37.9035C31.9866 37.7912 32.3171 37.6545 32.6345 37.4939L32.8032 37.663C33.2872 38.1415 34.07 38.1409 34.5492 37.6606L35.9923 36.2177C36.2252 35.9846 36.3537 35.6745 36.3537 35.3443C36.3537 35.014 36.2252 34.704 35.9938 34.4727L35.8251 34.303C35.9862 33.9826 36.1235 33.6524 36.2355 33.3136H36.4699C37.152 33.3136 37.7071 32.7594 37.7071 32.0789V30.0385C37.7072 29.3579 37.1521 28.8037 36.47 28.8037ZM34.0704 18.1509V24.1658C33.6405 24.022 33.1463 24.1158 32.8008 24.4568L32.6345 24.6234C32.3172 24.4629 31.9867 24.3262 31.6461 24.2139V23.9777C31.6461 23.2966 31.0922 22.7423 30.411 22.7423H28.3709C27.6889 22.7423 27.134 23.2965 27.134 23.9777V24.2139C26.7941 24.3262 26.4638 24.4635 26.1456 24.6241L25.9787 24.4568C25.4974 23.9764 24.7146 23.9759 24.2327 24.4568L22.7892 25.9003C22.3077 26.3819 22.3077 27.1649 22.7892 27.6465L22.9562 27.8138C22.7957 28.1324 22.6587 28.4632 22.5463 28.8038H22.3099C21.629 28.8038 21.0751 29.3579 21.0751 30.0385V32.0789C21.0751 32.7594 21.629 33.3136 22.3099 33.3136H22.5463C22.6587 33.6542 22.7957 33.985 22.9565 34.3036L22.7893 34.4715C22.5372 34.7235 22.4206 35.0584 22.4327 35.3895H6.5176V22.3389C6.5176 22.2937 6.55572 22.2553 6.60091 22.2553H20.1864C20.4122 22.2553 20.6207 22.1332 20.7315 21.9366L22.6864 18.4564L22.8008 18.244C22.8756 18.1021 23.001 17.8644 23.0865 17.8305H33.7478C33.9227 17.8305 34.0704 17.9773 34.0704 18.1509ZM32.2515 5.89907C32.2503 5.92807 32.2463 5.9592 32.2433 5.99426L32.2423 6.00488L29.6548 5.77088L29.85 3.61388L30.0674 3.63345L32.2515 5.89907ZM9.95235 2.33857C9.96423 2.20401 10.0287 2.08163 10.1336 1.9937C10.2386 1.90613 10.3713 1.86338 10.5047 1.87745L28.6048 3.50213L28.402 5.74495C28.3746 6.0547 28.4701 6.35713 28.6709 6.59607C28.8711 6.8347 29.1518 6.98088 29.4598 7.00838L32.1307 7.25007L31.294 16.5805H23.0865C22.2649 16.5805 21.9219 17.2305 21.6952 17.6608L19.8205 21.0053H8.2761L9.95235 2.33857ZM3.54279 33.8184L3.55591 17.5718C3.55591 17.5489 3.55835 17.5077 3.57454 17.4915C3.59222 17.4735 3.65391 17.4539 3.76466 17.4442H7.34079L7.02097 21.0053H6.60091C5.86572 21.0053 5.2676 21.6034 5.2676 22.3389V35.3183C3.54847 35.1409 3.54279 34.2648 3.54279 33.8184ZM35.7681 32.0636C35.4828 32.0636 35.2337 32.2565 35.1629 32.533C35.0222 33.0793 34.8043 33.6048 34.5147 34.0955C34.3701 34.3403 34.4094 34.6521 34.6099 34.8536L35.1088 35.3333L33.6852 36.7768L33.1875 36.2788C32.9852 36.0768 32.6714 36.0371 32.4255 36.1836C31.9439 36.4704 31.4187 36.6883 30.8651 36.8306C30.5889 36.902 30.396 37.151 30.396 37.4361L30.411 38.125L28.384 38.1403V37.4359C28.384 37.1508 28.1912 36.9018 27.9153 36.831C27.3635 36.6882 26.838 36.4703 26.3537 36.1828C26.2545 36.1242 26.1443 36.0956 26.0351 36.0956C25.8733 36.0956 25.7135 36.1584 25.5929 36.2787L25.1165 36.7768L23.9456 35.6217C23.9194 35.59 23.8914 35.5628 23.8596 35.5368L23.6744 35.3541L24.1724 34.8536C24.3735 34.6516 24.4123 34.3384 24.2664 34.0937C23.9789 33.6103 23.7613 33.0854 23.6197 32.533C23.5486 32.2571 23.2996 32.0636 23.0142 32.0636L22.3252 32.0789L22.3099 30.0538H23.0143C23.2996 30.0538 23.5487 29.8609 23.6198 29.5844C23.7614 29.0326 23.9793 28.5071 24.267 28.0213C24.4126 27.7759 24.3732 27.4628 24.1712 27.2608L23.6732 26.7841L25.095 25.3406L25.593 25.8386C25.7948 26.0401 26.1082 26.0803 26.3538 25.9344C26.8382 25.6469 27.3637 25.4291 27.9154 25.2863C28.1913 25.2154 28.3842 24.9664 28.3842 24.6814L28.371 23.9923L30.3962 23.9777V24.6814C30.3962 24.9665 30.589 25.2155 30.8652 25.2869C31.4188 25.4291 31.944 25.6471 32.4256 25.9339C32.6716 26.0804 32.9853 26.0401 33.1876 25.8388L33.6655 25.3407L34.2375 25.9048C34.2508 25.9194 34.2643 25.9325 34.279 25.9458L35.108 26.7634L34.6103 27.2633C34.4095 27.4653 34.3701 27.7773 34.5148 28.022C34.8041 28.5121 35.022 29.0383 35.163 29.5845C35.2341 29.861 35.4831 30.0539 35.7682 30.0539L36.4572 30.0386L36.47 32.0638L35.7681 32.0636Z" fill="#E5E9DC"/>
<path d="M29.3911 26.9965C27.1511 26.9965 25.3286 28.819 25.3286 31.059C25.3286 33.299 27.1511 35.1215 29.3911 35.1215C31.6311 35.1215 33.4536 33.299 33.4536 31.059C33.4536 28.819 31.6311 26.9965 29.3911 26.9965ZM29.3911 33.8715C27.8402 33.8715 26.5786 32.6098 26.5786 31.059C26.5786 29.5081 27.8402 28.2465 29.3911 28.2465C30.942 28.2465 32.2036 29.5081 32.2036 31.059C32.2036 32.6098 30.942 33.8715 29.3911 33.8715Z" fill="#E5E9DC"/>
<path d="M13.5956 9.24375L26.9903 10.4461C27.0093 10.4476 27.0282 10.4486 27.0468 10.4486C27.3669 10.4486 27.6394 10.2041 27.6687 9.87943C27.6995 9.53581 27.446 9.23187 27.102 9.20106L13.7073 7.99868C13.3624 7.96937 13.0597 8.22175 13.0289 8.56537C12.9981 8.909 13.2517 9.21293 13.5956 9.24375Z" fill="#E5E9DC"/>
<path d="M13.2754 12.8L26.672 14.0021C26.691 14.0036 26.7098 14.0045 26.7285 14.0045C27.0486 14.0045 27.3211 13.7601 27.3504 13.4354C27.3812 13.0915 27.1277 12.7878 26.7837 12.757L13.3871 11.555C13.0404 11.529 12.7398 11.778 12.7087 12.1216C12.6779 12.4655 12.9315 12.7692 13.2754 12.8Z" fill="#E5E9DC"/>
</svg>
