<svg width="30" height="40" viewBox="0 0 30 40" fill="none" xmlns="http://www.w3.org/2000/svg">
<path d="M9.03691 39.9999H9.02891C8.91675 39.9984 8.80753 39.9638 8.71486 39.9006C8.62219 39.8374 8.55017 39.7483 8.50778 39.6445L6.66725 35.136L2.24335 37.1548C2.13792 37.203 2.02035 37.2179 1.90623 37.1977C1.79211 37.1775 1.68684 37.123 1.60439 37.0415C1.52194 36.9601 1.46621 36.8555 1.44459 36.7416C1.42298 36.6278 1.4365 36.51 1.48337 36.404L6.29983 25.5065C6.36113 25.3679 6.47501 25.2592 6.61641 25.2045C6.7578 25.1498 6.91514 25.1535 7.05381 25.2148C7.19248 25.2761 7.30111 25.39 7.35582 25.5314C7.41053 25.6728 7.40682 25.8301 7.34552 25.9688L3.13762 35.4909L6.73753 33.8492C6.80758 33.8172 6.88337 33.7998 6.96034 33.7978C7.03731 33.7959 7.11388 33.8095 7.18544 33.8379C7.25701 33.8663 7.32211 33.9089 7.37681 33.963C7.43152 34.0172 7.47471 34.0819 7.5038 34.1532L9.06091 37.9662L13.5751 27.7293C13.6362 27.5907 13.75 27.482 13.8913 27.4272C14.0326 27.3724 14.1898 27.3759 14.3285 27.4371C14.4672 27.4982 14.5759 27.6119 14.6307 27.7532C14.6855 27.8945 14.6819 28.0518 14.6208 28.1905L9.56147 39.6571C9.51694 39.7591 9.44357 39.8459 9.35038 39.9068C9.25719 39.9677 9.14824 40.0001 9.03691 39.9999Z" fill="#E5E9DC"/>
<path d="M11.3226 29.3923C11.138 29.3931 10.9541 29.3695 10.7757 29.322C9.92262 29.0934 9.35235 28.3506 8.84893 27.6934C8.5735 27.2732 8.22517 26.9055 7.82039 26.6077C7.35084 26.399 6.84763 26.2763 6.33471 26.2455C5.4833 26.1312 4.60275 26.0135 3.9919 25.4015C3.38106 24.7895 3.26106 23.9078 3.14735 23.0558C3.11562 22.544 2.99294 22.0418 2.78507 21.573C2.48688 21.1686 2.11928 20.8204 1.69938 20.5445C1.04226 20.041 0.298274 19.4708 0.0702796 18.6182C-0.148572 17.7994 0.184562 16.9868 0.509126 16.2017C0.743714 15.7312 0.891597 15.2224 0.945688 14.6995C0.891518 14.1767 0.743636 13.6681 0.509126 13.1978C0.185705 12.4126 -0.148572 11.5978 0.0702796 10.7813C0.298846 9.9287 1.04169 9.35843 1.69938 8.85501C2.11969 8.57822 2.48733 8.22877 2.78507 7.82304C2.99307 7.35448 3.11557 6.85249 3.14678 6.34079C3.26106 5.48881 3.37535 4.60825 3.99133 3.99798C4.60732 3.38771 5.48444 3.26771 6.33413 3.15343C6.84706 3.12258 7.35027 2.99988 7.81981 2.79115C8.22438 2.49317 8.57267 2.12554 8.84836 1.70546C9.35121 1.04834 9.92205 0.304354 10.7746 0.0763595C11.5934 -0.144778 12.406 0.190643 13.1911 0.515207C13.6622 0.747659 14.1712 0.893408 14.6939 0.945482C15.2168 0.891547 15.7257 0.743859 16.1962 0.509492C16.9813 0.186071 17.7962 -0.148778 18.6121 0.070074C19.4653 0.29864 20.0355 1.04148 20.5389 1.69918C20.8146 2.11931 21.1629 2.48696 21.5675 2.78487C22.0361 2.99332 22.5384 3.11584 23.0503 3.14657C23.9017 3.26086 24.7823 3.37857 25.3931 3.99113C26.004 4.60368 26.124 5.48481 26.2377 6.33393C26.269 6.84678 26.3917 7.34991 26.5999 7.81961C26.8979 8.22424 27.2655 8.57254 27.6856 8.84816C28.3428 9.35157 29.0868 9.92242 29.3147 10.7744C29.5336 11.5938 29.2005 12.4058 28.8759 13.1915C28.6414 13.6618 28.4935 14.1705 28.4393 14.6932C28.4934 15.2159 28.6412 15.7246 28.8759 16.1948C29.1993 16.9805 29.5336 17.7948 29.3147 18.6119C29.0862 19.4639 28.3433 20.0348 27.6856 20.5382C27.2655 20.8138 26.8979 21.1621 26.5999 21.5667C26.3921 22.0353 26.2696 22.5373 26.2382 23.049C26.124 23.901 26.0068 24.7821 25.3937 25.3946C24.7806 26.0072 23.9006 26.1249 23.0509 26.2386C22.5389 26.27 22.0367 26.3928 21.5681 26.6015C21.1635 26.8994 20.8152 27.2671 20.5395 27.6872C20.0367 28.3437 19.4658 29.0883 18.6133 29.3163C17.7933 29.5363 16.9819 29.202 16.1968 28.8774C15.7258 28.6447 15.2167 28.4989 14.6939 28.4471C14.171 28.5008 13.6621 28.6485 13.1917 28.8831C12.6071 29.1713 11.9725 29.3442 11.3226 29.3923ZM11.3226 1.14376C11.2376 1.14303 11.1529 1.15341 11.0706 1.17462C10.5935 1.30205 10.1866 1.83289 9.75634 2.39459C9.39411 2.9377 8.93016 3.40554 8.39009 3.77227C7.79411 4.06238 7.14751 4.23412 6.48613 4.27798C5.8847 4.28345 5.29792 4.46415 4.7976 4.79797C4.46339 5.29809 4.28265 5.885 4.27761 6.4865C4.23374 7.14763 4.0622 7.794 3.77248 8.38988C3.40481 8.93015 2.936 9.39411 2.39194 9.75614C1.83024 10.187 1.29997 10.5938 1.17197 11.0704C1.13777 11.6584 1.27366 12.2438 1.56339 12.7566C1.86162 13.3623 2.0392 14.0202 2.08623 14.6937C2.03936 15.3673 1.86177 16.0252 1.56339 16.6308C1.27343 17.1438 1.13753 17.7294 1.17197 18.3177C1.29997 18.7948 1.83024 19.2011 2.39194 19.6319C2.936 19.9939 3.40481 20.4579 3.77248 20.9982C4.06246 21.5939 4.23402 22.2404 4.27761 22.9015C4.28334 23.5032 4.46423 24.0901 4.79817 24.5907C5.29851 24.9244 5.88532 25.1049 6.4867 25.1101C7.1479 25.1539 7.79431 25.3257 8.39009 25.6158C8.93058 25.983 9.39443 26.4519 9.75577 26.9963C10.1866 27.5574 10.5935 28.0883 11.07 28.2157C11.6578 28.2491 12.2428 28.1133 12.7557 27.8243C13.362 27.527 14.0203 27.3504 14.6939 27.3043C15.3676 27.3511 16.0257 27.5285 16.6316 27.8266C17.1442 28.1169 17.7298 28.2529 18.3179 28.218C18.795 28.0906 19.2018 27.5597 19.6321 26.998C19.9938 26.454 20.4576 25.9854 20.9978 25.6181C21.5937 25.3278 22.2403 25.1558 22.9017 25.1118C23.5032 25.1069 24.0901 24.9264 24.5903 24.5924C24.9243 24.0921 25.105 23.5053 25.1103 22.9038C25.1541 22.2427 25.3256 21.5963 25.6154 21.0004C25.9829 20.4599 26.4517 19.9957 26.9959 19.6336C27.5576 19.2028 28.0879 18.7965 28.2159 18.3194C28.2501 17.7314 28.1142 17.1459 27.8245 16.6331C27.5261 16.0275 27.3485 15.3695 27.3016 14.696C27.3487 14.0225 27.5263 13.3646 27.8245 12.7589C28.1145 12.2462 28.2504 11.6607 28.2159 11.0727C28.0879 10.5955 27.5576 10.1893 26.9959 9.75842C26.4519 9.3964 25.9831 8.93244 25.6154 8.39217C25.3255 7.79635 25.1539 7.14995 25.1103 6.48878C25.1046 5.88712 24.9237 5.30014 24.5897 4.79968C24.0895 4.46568 23.5026 4.28514 22.9012 4.28026C22.2399 4.23541 21.5935 4.06291 20.9978 3.77227C20.4576 3.40475 19.9938 2.93591 19.6321 2.39173C19.2013 1.83003 18.7944 1.29976 18.3179 1.17176C17.73 1.13795 17.1448 1.27403 16.6322 1.56375C16.0261 1.86241 15.3679 2.04056 14.6939 2.08831C14.0203 2.0412 13.3623 1.86383 12.7563 1.56604C12.3069 1.34207 11.8216 1.19912 11.3226 1.14376Z" fill="#E5E9DC"/>
<path d="M14.6937 24.4484C12.7649 24.4485 10.8793 23.8766 9.27545 22.8051C7.67161 21.7336 6.42154 20.2105 5.68332 18.4285C4.9451 16.6465 4.75189 14.6856 5.12812 12.7938C5.50435 10.902 6.43313 9.16424 7.79699 7.8003C9.16086 6.43635 10.8986 5.50747 12.7903 5.13113C14.6821 4.75479 16.643 4.94788 18.4251 5.686C20.2071 6.42411 21.7303 7.6741 22.8019 9.27787C23.8735 10.8816 24.4455 12.7672 24.4455 14.696C24.4426 17.2815 23.4143 19.7603 21.5861 21.5886C19.758 23.4169 17.2792 24.4454 14.6937 24.4484ZM14.6937 6.0871C12.9909 6.08699 11.3262 6.59185 9.91031 7.53783C8.4944 8.48381 7.3908 9.82843 6.7391 11.4016C6.0874 12.9748 5.91685 14.706 6.24903 16.3761C6.58121 18.0462 7.4012 19.5804 8.6053 20.7845C9.8094 21.9886 11.3435 22.8085 13.0137 23.1407C14.6838 23.4729 16.4149 23.3024 17.9881 22.6507C19.5613 21.999 20.906 20.8954 21.8519 19.4795C22.7979 18.0635 23.3028 16.3989 23.3027 14.696C23.3001 12.4136 22.3923 10.2254 20.7783 8.61144C19.1644 6.99751 16.9762 6.08967 14.6937 6.0871Z" fill="#E5E9DC"/>
<path d="M20.351 39.9999C20.24 39.9997 20.1314 39.9672 20.0385 39.9063C19.9457 39.8455 19.8726 39.7588 19.8282 39.6571L14.7677 28.1905C14.7065 28.0518 14.703 27.8945 14.7578 27.7532C14.8126 27.6119 14.9213 27.4982 15.06 27.4371C15.1986 27.3759 15.3559 27.3724 15.4972 27.4272C15.6385 27.482 15.7522 27.5907 15.8134 27.7293L20.3276 37.9662L21.8847 34.1532C21.9138 34.0819 21.957 34.0172 22.0117 33.963C22.0664 33.9089 22.1315 33.8663 22.203 33.8379C22.2746 33.8095 22.3512 33.7959 22.4281 33.7978C22.5051 33.7998 22.5809 33.8172 22.6509 33.8492L26.2509 35.4909L22.0424 25.9688C22.012 25.9001 21.9955 25.8262 21.9937 25.7511C21.992 25.6761 22.005 25.6014 22.0321 25.5314C22.0592 25.4614 22.0998 25.3974 22.1516 25.3431C22.2034 25.2888 22.2654 25.2452 22.3341 25.2148C22.4028 25.1845 22.4767 25.1679 22.5518 25.1662C22.6268 25.1644 22.7015 25.1774 22.7715 25.2045C22.8415 25.2316 22.9055 25.2722 22.9598 25.324C23.0141 25.3759 23.0577 25.4379 23.0881 25.5065L27.9028 36.404C27.9497 36.51 27.9632 36.6277 27.9416 36.7416C27.92 36.8555 27.8643 36.9601 27.7818 37.0415C27.6994 37.123 27.5941 37.1775 27.48 37.1977C27.3658 37.2179 27.2483 37.203 27.1428 37.1548L22.7189 35.136L20.8784 39.6445C20.836 39.7483 20.764 39.8374 20.6713 39.9006C20.5787 39.9638 20.4694 39.9984 20.3573 39.9999H20.351Z" fill="#E5E9DC"/>
<path d="M17.8197 19.7863C17.7271 19.7864 17.6359 19.7638 17.554 19.7206L14.694 18.2172L11.837 19.7206C11.7426 19.7701 11.6363 19.7922 11.5301 19.7844C11.4238 19.7766 11.3219 19.7393 11.2357 19.6767C11.1495 19.6141 11.0826 19.5286 11.0424 19.4299C11.0023 19.3313 10.9905 19.2233 11.0084 19.1183L11.5547 15.9344L9.24102 13.679C9.16461 13.6046 9.11056 13.5102 9.085 13.4067C9.05944 13.3031 9.06339 13.1944 9.09639 13.093C9.12939 12.9915 9.19014 12.9013 9.27175 12.8326C9.35335 12.7639 9.45257 12.7194 9.55815 12.7042L12.7552 12.2402L14.1838 9.34313C14.2364 9.25417 14.3113 9.18046 14.401 9.12925C14.4908 9.07805 14.5924 9.05112 14.6957 9.05112C14.7991 9.05112 14.9007 9.07805 14.9905 9.12925C15.0802 9.18046 15.1551 9.25417 15.2077 9.34313L16.6363 12.2402L19.8333 12.7042C19.9389 12.7194 20.0381 12.7639 20.1198 12.8326C20.2014 12.9013 20.2621 12.9915 20.2951 13.093C20.3281 13.1944 20.3321 13.3031 20.3065 13.4067C20.2809 13.5102 20.2269 13.6046 20.1505 13.679L17.8368 15.9344L18.3831 19.1183C18.3972 19.2003 18.3931 19.2844 18.3713 19.3647C18.3495 19.4449 18.3105 19.5195 18.2569 19.5831C18.2033 19.6467 18.1364 19.6979 18.061 19.733C17.9856 19.7681 17.9029 19.7863 17.8197 19.7863ZM14.694 17.0007C14.7866 17.0005 14.8778 17.0229 14.9597 17.0658L17.0608 18.1721L16.6608 15.8333C16.6452 15.7419 16.652 15.6482 16.6807 15.5601C16.7094 15.472 16.759 15.3922 16.8254 15.3276L18.5242 13.6705L16.1763 13.3276C16.0845 13.3142 15.9974 13.2787 15.9225 13.2242C15.8475 13.1696 15.7869 13.0977 15.746 13.0145L14.694 10.8871L13.6438 13.015C13.6028 13.0982 13.5423 13.1702 13.4673 13.2248C13.3924 13.2793 13.3052 13.3148 13.2135 13.3282L10.8656 13.671L12.5644 15.3281C12.6307 15.3928 12.6804 15.4726 12.7091 15.5607C12.7377 15.6488 12.7446 15.7425 12.7289 15.8338L12.3289 18.1726L14.43 17.0681C14.5113 17.0247 14.6019 17.0015 14.694 17.0007Z" fill="#E5E9DC"/>
</svg>
