<svg width="32" height="40" viewBox="0 0 32 40" fill="none" xmlns="http://www.w3.org/2000/svg">
<path fill-rule="evenodd" clip-rule="evenodd" d="M16.1023 17.0057C14.4578 17.0057 14.2843 16.926 14.2007 16.8877C12.3414 16.0229 10.8312 14.269 9.94606 11.9494C9.12887 9.80801 8.92575 7.37911 9.38825 5.28692C9.72809 3.75176 10.4148 2.46036 11.3742 1.55333C12.5468 0.443952 14.0703 -0.0787045 15.8882 0.00957672C16.0187 0.00332672 16.1445 0.00020172 16.2711 0.00020172C17.932 0.00020172 19.3281 0.529108 20.4203 1.57208C21.3812 2.49005 22.0656 3.79473 22.3984 5.34473C22.85 7.44786 22.6328 9.87989 21.8023 12.0174C20.9015 14.3361 19.375 16.0768 17.5031 16.9205C17.4148 16.9604 17.3148 17.0057 16.1023 17.0057ZM14.5554 16.0182C14.7023 16.04 15.2461 16.0682 16.1023 16.0682C16.7 16.0682 17.0507 16.0533 17.1687 16.0424C20.7461 14.3893 22.2875 9.29161 21.4812 5.54161C20.8531 2.61583 18.9539 0.937702 16.2711 0.937702C16.1523 0.937702 16.0343 0.940827 15.9117 0.947077C15.8953 0.947858 15.8797 0.947858 15.8632 0.947077C15.7437 0.940827 15.6226 0.937702 15.5047 0.937702C12.839 0.937702 10.9437 2.5963 10.3039 5.48926C9.47809 9.22051 10.9906 14.3283 14.5554 16.0182Z" fill="#E5E9DC"/>
<path fill-rule="evenodd" clip-rule="evenodd" d="M21.9086 10.4877C21.9016 10.4877 21.8945 10.4877 21.8875 10.4869C21.6289 10.476 21.4289 10.2572 21.4398 9.99862C21.5055 8.50175 19.643 7.33378 19.3391 7.15331C18.2836 6.86347 15.5508 7.07675 14.5711 7.18534C14.3992 7.20487 14.2297 7.12675 14.132 6.98222C13.6461 6.26659 12.6664 5.33925 12.1742 4.89159C10.2672 6.59159 10.1688 8.81034 10.1688 8.83378C10.1594 9.09159 9.94454 9.29394 9.68516 9.28691C9.42735 9.27909 9.22423 9.06425 9.23126 8.80566C9.23438 8.68847 9.34141 5.90722 11.8945 3.90331C12.0711 3.76503 12.3211 3.7705 12.4906 3.91737C12.5547 3.97284 13.9578 5.18925 14.7414 6.22519C15.6375 6.13769 18.4578 5.90331 19.6617 6.27128C19.693 6.28066 19.7227 6.29316 19.7516 6.30878C19.8625 6.3705 22.4727 7.8369 22.3766 10.0392C22.3656 10.2908 22.1578 10.4877 21.9086 10.4877Z" fill="#E5E9DC"/>
<path fill-rule="evenodd" clip-rule="evenodd" d="M4.60933 37.415C4.58277 37.415 4.55543 37.4127 4.52808 37.408C3.05074 37.1502 0.396834 36.0096 0.648397 34.4221L2.5523 22.4369C2.79293 19.6815 7.00621 18.4166 10.0843 17.4932C10.7406 17.2955 11.325 17.1205 11.764 16.9596V14.851C11.764 14.5924 11.9742 14.3822 12.2328 14.3822C12.4921 14.3822 12.7015 14.5924 12.7015 14.851V17.2791C12.7015 17.4682 12.589 17.6377 12.4148 17.7111C11.9156 17.9221 11.1914 18.1393 10.3539 18.3908C7.68668 19.1916 3.65699 20.401 3.48512 22.5315C3.48433 22.5432 3.48277 22.5549 3.48043 22.5674L1.57418 34.569C1.46558 35.2565 3.23668 36.2307 4.68902 36.4846C4.94449 36.5291 5.1148 36.7721 5.07027 37.0268C5.03121 37.2549 4.83277 37.415 4.60933 37.415Z" fill="#E5E9DC"/>
<path fill-rule="evenodd" clip-rule="evenodd" d="M27.1821 37.4111C26.9586 37.4111 26.761 37.2502 26.7211 37.0229C26.6766 36.7682 26.8469 36.5252 27.1024 36.4807C28.5477 36.2283 30.3102 35.2557 30.2008 34.569L28.2946 22.5674C28.293 22.5557 28.2915 22.5432 28.2907 22.5315C28.118 20.401 24.0883 19.1916 21.4219 18.3908C20.5836 18.1393 19.8602 17.9221 19.3602 17.7111C19.186 17.6377 19.0735 17.4682 19.0735 17.2791V14.851C19.0735 14.5924 19.2836 14.3822 19.5422 14.3822C19.8008 14.3822 20.011 14.5924 20.011 14.851V16.9596C20.45 17.1205 21.0344 17.2955 21.6915 17.4932C24.7696 18.4166 28.9821 19.6815 29.2235 22.4369L31.1266 34.4221C31.3938 36.1018 28.5852 37.1736 27.2633 37.4041C27.236 37.4088 27.2086 37.4111 27.1821 37.4111Z" fill="#E5E9DC"/>
<path fill-rule="evenodd" clip-rule="evenodd" d="M13.2016 22.39C13.1844 22.39 13.168 22.3893 13.1508 22.3877C13.0149 22.3729 12.8914 22.2986 12.8141 22.1854L10.0594 18.1369C9.91408 17.9229 9.96955 17.6315 10.1836 17.4861C10.3977 17.34 10.6891 17.3955 10.8344 17.6096L13.2797 21.2033L15.093 19.4908L11.9938 17.6541C11.7711 17.5221 11.6977 17.2346 11.8297 17.0119C11.9617 16.7893 12.2492 16.7158 12.4719 16.8479L16.1055 19.0018C16.232 19.0768 16.3164 19.2065 16.3328 19.3533C16.3485 19.4994 16.2953 19.6447 16.1883 19.7455L13.5235 22.2627C13.436 22.3447 13.3203 22.39 13.2016 22.39Z" fill="#E5E9DC"/>
<path fill-rule="evenodd" clip-rule="evenodd" d="M18.5094 22.4877C18.3859 22.4877 18.2664 22.4385 18.1781 22.3502L15.55 19.7221C15.4469 19.619 15.3976 19.4736 15.4164 19.3291C15.4359 19.1846 15.5211 19.0572 15.6469 18.9846L19.3078 16.8713C19.532 16.7416 19.8187 16.819 19.9476 17.0432C20.0773 17.2674 20.0008 17.5541 19.7765 17.683L16.6445 19.4908L18.4406 21.2869L20.943 17.6104C21.0883 17.3963 21.3805 17.3408 21.5937 17.4869C21.8078 17.6322 21.8633 17.9236 21.718 18.1377L18.8969 22.2822C18.8187 22.3979 18.693 22.4721 18.5539 22.4854C18.539 22.4869 18.5242 22.4877 18.5094 22.4877Z" fill="#E5E9DC"/>
<path fill-rule="evenodd" clip-rule="evenodd" d="M17.7305 23.4791H14.0469C13.7883 23.4791 13.5781 23.2689 13.5781 23.0103V21.1236C13.5781 20.8643 13.7883 20.6549 14.0469 20.6549C14.3055 20.6549 14.5156 20.8643 14.5156 21.1236V22.5416H17.2617V21.24C17.2617 20.9814 17.4719 20.7713 17.7305 20.7713C17.9898 20.7713 18.1992 20.9814 18.1992 21.24V23.0103C18.1992 23.2689 17.9898 23.4791 17.7305 23.4791Z" fill="#E5E9DC"/>
<path fill-rule="evenodd" clip-rule="evenodd" d="M16.7531 25.54H15.0297C14.7711 25.54 14.5609 25.3307 14.5609 25.0713V23.0103C14.5609 22.751 14.7711 22.5416 15.0297 22.5416H16.7531C17.0125 22.5416 17.2219 22.751 17.2219 23.0103V25.0713C17.2219 25.3307 17.0125 25.54 16.7531 25.54ZM15.4984 24.6025H16.2844V23.4791H15.4984V24.6025Z" fill="#E5E9DC"/>
<path fill-rule="evenodd" clip-rule="evenodd" d="M25.9016 39.9986H5.88125C4.92813 39.9986 4.15234 39.2228 4.15234 38.2697V26.3314C4.15234 25.3783 4.92813 24.6025 5.88125 24.6025H25.9016C26.8547 24.6025 27.6305 25.3783 27.6305 26.3314V38.2697C27.6305 39.2228 26.8547 39.9986 25.9016 39.9986ZM5.88125 25.54C5.44531 25.54 5.08984 25.8955 5.08984 26.3314V38.2697C5.08984 38.7064 5.44453 39.0611 5.88125 39.0611H25.9016C26.3383 39.0611 26.693 38.7064 26.693 38.2697V26.3314C26.693 25.8955 26.3383 25.54 25.9016 25.54H5.88125Z" fill="#E5E9DC"/>
<path fill-rule="evenodd" clip-rule="evenodd" d="M15.8915 34.7338C14.2024 34.7338 12.8274 33.3596 12.8274 31.6705C12.8274 29.9807 14.2024 28.6064 15.8915 28.6064C17.5805 28.6064 18.9555 29.9807 18.9555 31.6705C18.9555 33.3596 17.5805 34.7338 15.8915 34.7338ZM15.8915 29.5439C14.7188 29.5439 13.7649 30.4979 13.7649 31.6705C13.7649 32.8432 14.7188 33.7971 15.8915 33.7971C17.0641 33.7971 18.018 32.8432 18.018 31.6705C18.018 30.4979 17.0641 29.5439 15.8915 29.5439Z" fill="#E5E9DC"/>
<path fill-rule="evenodd" clip-rule="evenodd" d="M31.3141 39.9986H0.46875C0.210156 39.9986 0 39.7885 0 39.5299C0 39.2713 0.210156 39.0611 0.46875 39.0611H31.3141C31.5727 39.0611 31.7828 39.2713 31.7828 39.5299C31.7828 39.7885 31.5727 39.9986 31.3141 39.9986Z" fill="#E5E9DC"/>
</svg>
